<svg xmlns="http://www.w3.org/2000/svg" xmlns:xlink="http://www.w3.org/1999/xlink" width="48" height="48" viewBox="0 0 48 48"><defs><style>.a{fill-rule:evenodd;fill:url(#a);}</style><linearGradient id="a" x1="0.249" y1="1.046" x2="0.698" y2="-0.141" gradientUnits="objectBoundingBox"><stop offset="0" stop-color="#35edfb"/><stop offset="0.553" stop-color="#2d9bef"/><stop offset="1" stop-color="#9b2def"/></linearGradient></defs><path class="a" d="M14.837,1.8A24.429,24.429,0,0,1,24.059,0,22.174,22.174,0,0,1,37.292,4.2a23.826,23.826,0,0,1,8.822,10.6,22.681,22.681,0,0,1,1.4,13.6A22.639,22.639,0,0,1,41.1,40.6l-2.205-2A21.831,21.831,0,0,0,44.51,28a20.537,20.537,0,0,0-1.2-12,19.433,19.433,0,0,0-7.819-9.2A21.558,21.558,0,0,0,23.859,3.2h0a18.56,18.56,0,0,0-8.02,1.6A19.52,19.52,0,0,0,9.223,9h0a24.537,24.537,0,0,0-4.611,6.6,21.7,21.7,0,0,0-1.6,7.8A21.253,21.253,0,0,0,9.022,38L6.817,40A22.628,22.628,0,0,1,0,23.6H0a22.556,22.556,0,0,1,1.8-9A24.5,24.5,0,0,1,7.017,7,23.259,23.259,0,0,1,14.837,1.8Zm3.939,8.687A15.011,15.011,0,0,1,24.059,9.6c4.525.013,7.256,1.461,10.225,4.2a13.052,13.052,0,0,1,4.21,10h0a14.117,14.117,0,0,1-4.21,9.8l-2.205-2.2a10.915,10.915,0,0,0,3.208-7.6,11.2,11.2,0,0,0-3.408-8,11.253,11.253,0,0,0-8.02-3.4h0a9.108,9.108,0,0,0-4.4.983A9.063,9.063,0,0,0,16.04,15.8,11.655,11.655,0,0,0,12.631,24a10.915,10.915,0,0,0,3.208,7.6l-2.205,2.2A14.63,14.63,0,0,1,9.423,24h0a15.4,15.4,0,0,1,4.411-10.2h0A16.484,16.484,0,0,1,18.776,10.487ZM25.663,48H22.656V28.4a4.742,4.742,0,0,1-3.408-4.6,4.812,4.812,0,0,1,9.624,0,4.742,4.742,0,0,1-3.408,4.6V48Z"/></svg>