<svg xmlns="http://www.w3.org/2000/svg" xmlns:xlink="http://www.w3.org/1999/xlink" width="95.102" height="94.965" viewBox="0 0 95.102 94.965"><defs><style>.a{fill:url(#a);}.b{filter:url(#b);}</style><linearGradient id="a" x1="0.857" y1="-0.165" x2="0.069" y2="1.045" gradientUnits="objectBoundingBox"><stop offset="0" stop-color="#9b2def"/><stop offset="0.497" stop-color="#2d9bef"/><stop offset="1" stop-color="#2dceef"/></linearGradient><filter id="b" x="0" y="0" width="95.102" height="94.965" filterUnits="userSpaceOnUse"><feOffset input="SourceAlpha"/><feGaussianBlur stdDeviation="7" result="c"/><feFlood flood-color="#02f" flood-opacity="0.322"/><feComposite operator="in" in2="c"/><feComposite in="SourceGraphic"/></filter></defs><g transform="translate(9.976 9.995)"><g class="b" transform="matrix(1, 0, 0, 1, -9.98, -10)"><path class="a" d="M17030.768-9323.767a26.548,26.548,0,0,1,0-37.474,26.658,26.658,0,0,1,18.809-7.784,26.485,26.485,0,0,1,18.813,7.784,26.548,26.548,0,0,1,0,37.474,26.947,26.947,0,0,1-18.881,7.707A26.371,26.371,0,0,1,17030.768-9323.767Zm3.854-1.333a22.974,22.974,0,0,0,31.076-1.208,22.97,22.97,0,0,0,1.213-31.075l-12.172,12.169a6.575,6.575,0,0,1,.676,3.09,5.982,5.982,0,0,1-1.707,4.591,6.953,6.953,0,0,1-4.924,1.594h-3.32Zm-1.311-33.595a22.9,22.9,0,0,0-1.234,31.049l8.811-8.813-.723-2.369h-4.424l-.879,2.889h-2.773l4.283-12.186h3.145l3.4,9.638,2.43-2.43v-7.156h3.811a7.965,7.965,0,0,1,2.869.476l12.334-12.336a22.843,22.843,0,0,0-14.852-5.481A22.855,22.855,0,0,0,17033.311-9358.694Zm14.607,20.629h1.105q3.715,0,3.715-3.99a7.17,7.17,0,0,0-.076-1.082l-4.744,4.744Zm-11.531-2.919h3.164q-1.222-3.927-1.377-4.44c-.1-.347-.176-.617-.217-.814Q17037.679-9345.177,17036.387-9340.984Zm11.531-2.5,2.377-2.377a4.826,4.826,0,0,0-1.006-.1h-1.371Zm9.262,6.984v-2.388a14.349,14.349,0,0,0,2.078.771,6.149,6.149,0,0,0,1.557.224,2.236,2.236,0,0,0,1.3-.322,1.115,1.115,0,0,0,.451-.964,1.054,1.054,0,0,0-.2-.635,2.175,2.175,0,0,0-.588-.535,14.875,14.875,0,0,0-1.572-.823,7.443,7.443,0,0,1-1.668-1,3.672,3.672,0,0,1-.887-1.123,3.145,3.145,0,0,1-.336-1.491,3.132,3.132,0,0,1,1.094-2.533,4.541,4.541,0,0,1,3.018-.922,7.286,7.286,0,0,1,1.8.223,12.087,12.087,0,0,1,1.795.635l-.826,2a11.716,11.716,0,0,0-1.607-.553,5.069,5.069,0,0,0-1.252-.158,1.659,1.659,0,0,0-1.119.338,1.118,1.118,0,0,0-.389.888,1.1,1.1,0,0,0,.158.6,1.68,1.68,0,0,0,.5.488,15.8,15.8,0,0,0,1.633.854,6.489,6.489,0,0,1,2.33,1.628,3.178,3.178,0,0,1,.631,2.007,3.133,3.133,0,0,1-1.184,2.589,5.139,5.139,0,0,1-3.291.947A7.723,7.723,0,0,1,17057.18-9336.5Z" transform="translate(-17002.03 9390.02)"/></g></g></svg>